<?xml version="1.0" encoding="UTF-8"?><svg xmlns="http://www.w3.org/2000/svg" xmlns:xlink="http://www.w3.org/1999/xlink" fill-opacity="1" color-rendering="auto" color-interpolation="auto" text-rendering="auto" stroke="black" stroke-linecap="square" width="893" stroke-miterlimit="10" shape-rendering="auto" stroke-opacity="1" fill="black" stroke-dasharray="none" font-weight="normal" stroke-width="1" height="851" font-family="'Dialog'" font-style="normal" stroke-linejoin="miter" font-size="12px" stroke-dashoffset="0" image-rendering="auto">
  <!--Generated by ySVG 2.5-->
  <defs id="genericDefs"/>
  <g>
    <defs id="defs1">
      <clipPath clipPathUnits="userSpaceOnUse" id="clipPath1">
        <path d="M0 0 L893 0 L893 851 L0 851 L0 0 Z"/>
      </clipPath>
      <clipPath clipPathUnits="userSpaceOnUse" id="clipPath2">
        <path d="M-8 -52 L885 -52 L885 799 L-8 799 L-8 -52 Z"/>
      </clipPath>
      <clipPath clipPathUnits="userSpaceOnUse" id="clipPath3">
        <path d="M0 0 L0 18 L90 18 L90 0 Z"/>
      </clipPath>
      <clipPath clipPathUnits="userSpaceOnUse" id="clipPath4">
        <path d="M0 0 L0 18 L106 18 L106 0 Z"/>
      </clipPath>
      <script type="text/ecmascript">
        <![CDATA[      var SVGDocument = null;
      var SVGRoot = null;
      var TrueCoords = null;
      var lastElement = null;
      var initialized = null;
      var tipGroup;
      function Init(evt)
      {
         SVGDocument = evt.target.ownerDocument;
         SVGRoot = SVGDocument.documentElement;
         TrueCoords = SVGRoot.createSVGPoint();
         initialized = evt;
      };
      function GetTrueCoords(evt)
      {
         var newScale = SVGRoot.currentScale;
         var translation = SVGRoot.currentTranslate;
         TrueCoords.x = (evt.clientX - translation.x)/newScale;
         TrueCoords.y = (evt.clientY - translation.y)/newScale;
      };
      function HideTooltip( evt )
      {
         if(initialized == null) {
           Init(evt);
         }
         if(tipGroup != null) {
           tipGroup.setAttributeNS(null, 'visibility', 'hidden');
         }
      };
      function ShowTooltip( evt )
      {
         if(initialized == null) {
           Init(evt);
         }
         GetTrueCoords( evt );
         var tipScale = 1/SVGRoot.currentScale;
         var targetElement = evt.currentTarget;
         if ( lastElement != targetElement )
         {
            var targetId = targetElement.getAttributeNS(null, 'id');
            var tipId = 'tooltip.' + targetId;
            tipGroup = SVGDocument.getElementById(tipId);
            var xPos = TrueCoords.x + (10 * tipScale);
            var yPos = TrueCoords.y + (10 * tipScale);
            tipGroup.setAttributeNS(null, 'transform', 'translate(' + xPos + ',' + yPos + ') scale(' + tipScale + ')');
            tipGroup.setAttributeNS(null, 'visibility', 'visible');
         }
      };
]]>
      </script>
    </defs>
    <g fill="white" text-rendering="geometricPrecision" shape-rendering="geometricPrecision" transform="translate(8,52)" stroke="white">
      <rect x="-8" width="893" height="851" y="-52" clip-path="url(#clipPath2)" stroke="none"/>
    </g>
    <g id="y.node.1">
      <g fill="rgb(204,255,204)" text-rendering="geometricPrecision" shape-rendering="geometricPrecision" transform="matrix(1,0,0,1,8,52)" stroke="rgb(204,255,204)">
        <rect x="420.0262" width="86.2461" height="30" y="0" stroke="none"/>
      </g>
      <g text-rendering="geometricPrecision" stroke-miterlimit="1.45" shape-rendering="geometricPrecision" transform="matrix(1,0,0,1,8,52)" stroke-linecap="butt">
        <rect fill="none" x="420.0262" width="86.2461" height="30" y="0"/>
      </g>
      <g>
        <g text-rendering="geometricPrecision" stroke-miterlimit="1.45" shape-rendering="geometricPrecision" font-family="monospace" transform="matrix(1,0,0,1,8,52)" stroke-linecap="butt">
          <text x="427.0262" xml:space="preserve" y="19.1543" stroke="none">new Stream</text>
        </g>
      </g>
    </g>
    <g id="y.node.2">
      <g fill="rgb(153,204,255)" text-rendering="geometricPrecision" shape-rendering="geometricPrecision" transform="matrix(1,0,0,1,8,52)" stroke="rgb(153,204,255)">
        <rect x="393.046" width="93.4707" height="30" y="125.9375" stroke="none"/>
      </g>
      <g text-rendering="geometricPrecision" stroke-miterlimit="1.45" shape-rendering="geometricPrecision" transform="matrix(1,0,0,1,8,52)" stroke-linecap="butt">
        <rect fill="none" x="393.046" width="93.4707" height="30" y="125.9375"/>
      </g>
      <g>
        <g text-rendering="geometricPrecision" stroke-miterlimit="1.45" shape-rendering="geometricPrecision" font-family="monospace" transform="matrix(1,0,0,1,8,52)" stroke-linecap="butt">
          <text x="400.046" xml:space="preserve" y="145.0918" stroke="none">maybeQueued</text>
        </g>
      </g>
    </g>
    <g id="y.node.3">
      <g fill="rgb(153,204,255)" text-rendering="geometricPrecision" shape-rendering="geometricPrecision" transform="matrix(1,0,0,1,8,52)" stroke="rgb(153,204,255)">
        <rect x="272.8662" width="122.3691" height="30" y="365.0234" stroke="none"/>
      </g>
      <g text-rendering="geometricPrecision" stroke-miterlimit="1.45" shape-rendering="geometricPrecision" transform="matrix(1,0,0,1,8,52)" stroke-linecap="butt">
        <rect fill="none" x="272.8662" width="122.3691" height="30" y="365.0234"/>
      </g>
      <g>
        <g text-rendering="geometricPrecision" stroke-miterlimit="1.45" shape-rendering="geometricPrecision" font-family="monospace" transform="matrix(1,0,0,1,8,52)" stroke-linecap="butt">
          <text x="279.8662" xml:space="preserve" y="384.1777" stroke="none">waitingForValue</text>
        </g>
      </g>
    </g>
    <g id="y.node.4">
      <g fill="rgb(153,204,255)" text-rendering="geometricPrecision" shape-rendering="geometricPrecision" transform="matrix(1,0,0,1,8,52)" stroke="rgb(153,204,255)">
        <rect x="202.7222" width="107.9199" height="30" y="471.9922" stroke="none"/>
      </g>
      <g text-rendering="geometricPrecision" stroke-miterlimit="1.45" shape-rendering="geometricPrecision" transform="matrix(1,0,0,1,8,52)" stroke-linecap="butt">
        <rect fill="none" x="202.7222" width="107.9199" height="30" y="471.9922"/>
      </g>
      <g>
        <g text-rendering="geometricPrecision" stroke-miterlimit="1.45" shape-rendering="geometricPrecision" font-family="monospace" transform="matrix(1,0,0,1,8,52)" stroke-linecap="butt">
          <text x="209.7222" xml:space="preserve" y="491.1465" stroke="none">waitingForEnd</text>
        </g>
      </g>
    </g>
    <g id="y.node.5">
      <g fill="rgb(153,204,255)" text-rendering="geometricPrecision" shape-rendering="geometricPrecision" transform="matrix(1,0,0,1,8,52)" stroke="rgb(153,204,255)">
        <rect x="319.3382" width="180.166" height="30" y="621.4453" stroke="none"/>
      </g>
      <g text-rendering="geometricPrecision" stroke-miterlimit="1.45" shape-rendering="geometricPrecision" transform="matrix(1,0,0,1,8,52)" stroke-linecap="butt">
        <rect fill="none" x="319.3382" width="180.166" height="30" y="621.4453"/>
      </g>
      <g>
        <g text-rendering="geometricPrecision" stroke-miterlimit="1.45" shape-rendering="geometricPrecision" font-family="monospace" transform="matrix(1,0,0,1,8,52)" stroke-linecap="butt">
          <text x="326.3382" xml:space="preserve" y="640.5996" stroke="none">waitingForCleanupFinish</text>
        </g>
      </g>
    </g>
    <g id="y.edge.0">
      <g text-rendering="geometricPrecision" stroke-miterlimit="1.45" shape-rendering="geometricPrecision" transform="matrix(1,0,0,1,8,52)" stroke-linecap="butt">
        <path fill="none" d="M463.1492 30 L463.149 117.8907"/>
        <path d="M463.149 125.8907 L468.149 113.8907 L463.149 116.8907 L458.1491 113.8906 Z" stroke="none"/>
      </g>
    </g>
    <g onmouseout="HideTooltip(evt)" id="y.edge.8" onmousemove="ShowTooltip(evt)">
      <g text-rendering="geometricPrecision" stroke-miterlimit="1.45" stroke-dasharray="6,2" shape-rendering="geometricPrecision" transform="matrix(1,0,0,1,8,52)" stroke-linecap="butt">
        <path fill="none" d="M393.0026 140.9375 L348.566 140.9375 L348.566 91.4531 L416.4137 91.4531 L416.4137 117.9038"/>
        <path d="M416.4137 125.9038 L421.4137 113.9038 L416.4137 116.9038 L411.4137 113.9038 Z" stroke="none"/>
      </g>
      <g>
        <g stroke-linecap="butt" transform="matrix(1,0,0,1,8,52)" fill="white" text-rendering="geometricPrecision" shape-rendering="geometricPrecision" stroke-dasharray="6,2" stroke="white" stroke-miterlimit="1.45">
          <rect x="358.566" width="47.3477" height="17.9688" y="82.4688" stroke="none"/>
        </g>
        <g fill="silver" text-rendering="geometricPrecision" stroke-miterlimit="1.6" shape-rendering="geometricPrecision" transform="matrix(1,0,0,1,8,52)" stroke="silver">
          <rect fill="none" x="358.566" width="47.3477" height="17.9688" y="82.4688"/>
        </g>
        <g text-rendering="geometricPrecision" stroke-miterlimit="1.45" shape-rendering="geometricPrecision" font-family="monospace" transform="matrix(1,0,0,1,8,52)" stroke-linecap="butt">
          <text x="360.566" xml:space="preserve" y="95.6074" stroke="none">.yield</text>
        </g>
      </g>
    </g>
    <g onmouseout="HideTooltip(evt)" id="y.edge.1" onmousemove="ShowTooltip(evt)">
      <g text-rendering="geometricPrecision" stroke-miterlimit="1.45" stroke-width="4" shape-rendering="geometricPrecision" transform="matrix(1,0,0,1,8,52)" stroke-linecap="butt">
        <path fill="none" d="M427.3475 155.9375 L427.3476 290.0547 L379.1892 290.0547 L379.1892 353.9868"/>
        <path d="M379.1892 364.9868 L386.0642 348.4868 L379.1892 352.6118 L372.3142 348.4868 Z" stroke="none"/>
      </g>
      <g>
        <g stroke-linecap="butt" transform="matrix(1,0,0,1,8,52)" fill="white" text-rendering="geometricPrecision" shape-rendering="geometricPrecision" stroke="white" stroke-width="4" stroke-miterlimit="1.45">
          <rect x="410.4589" width="33.7773" height="18.1328" y="254.9219" stroke="none"/>
        </g>
        <g fill="silver" text-rendering="geometricPrecision" stroke-miterlimit="1.6" shape-rendering="geometricPrecision" transform="matrix(1,0,0,1,8,52)" stroke="silver">
          <rect fill="none" x="410.4589" width="33.7773" height="18.1328" y="254.9219"/>
        </g>
        <g text-rendering="geometricPrecision" stroke-miterlimit="1.45" shape-rendering="geometricPrecision" font-family="sans-serif" transform="matrix(1,0,0,1,8,52)" stroke-linecap="butt">
          <text x="412.459" xml:space="preserve" y="268.5234" stroke="none">.next</text>
        </g>
      </g>
    </g>
    <g onmouseout="HideTooltip(evt)" id="y.edge.5" onmousemove="ShowTooltip(evt)">
      <g text-rendering="geometricPrecision" stroke-miterlimit="1.45" stroke-dasharray="6,2" shape-rendering="geometricPrecision" transform="matrix(1,0,0,1,8,52)" stroke-linecap="butt">
        <path fill="none" d="M272.8359 371.7734 L24.5003 371.7734 L24.5003 330.5391 L287.4124 330.5391 L287.4124 356.9898"/>
        <path d="M287.4124 364.9898 L292.4124 352.9898 L287.4124 355.9898 L282.4124 352.9898 Z" stroke="none"/>
      </g>
      <g>
        <g stroke-linecap="butt" transform="matrix(1,0,0,1,8,52)" fill="white" text-rendering="geometricPrecision" shape-rendering="geometricPrecision" stroke-dasharray="6,2" stroke="white" stroke-miterlimit="1.45">
          <rect x="34.5003" width="242.4121" height="17.9688" y="321.5547" stroke="none"/>
        </g>
        <g fill="silver" text-rendering="geometricPrecision" stroke-miterlimit="1.6" shape-rendering="geometricPrecision" transform="matrix(1,0,0,1,8,52)" stroke="silver">
          <rect fill="none" x="34.5003" width="242.4121" height="17.9688" y="321.5547"/>
        </g>
        <g text-rendering="geometricPrecision" stroke-miterlimit="1.45" shape-rendering="geometricPrecision" font-family="monospace" transform="matrix(1,0,0,1,8,52)" stroke-linecap="butt">
          <text x="36.5003" xml:space="preserve" y="334.6934" stroke="none">.yield if waitingQueue.length &gt; 0</text>
        </g>
      </g>
    </g>
    <g onmouseout="HideTooltip(evt)" id="y.edge.20" onmousemove="ShowTooltip(evt)">
      <g text-rendering="geometricPrecision" stroke-miterlimit="1.45" stroke-width="4" shape-rendering="geometricPrecision" transform="matrix(1,0,0,1,8,52)" stroke-linecap="butt">
        <path fill="none" d="M272.8338 386.7734 L7.0003 386.7734 L7.0003 274.9883 L318.0046 274.9883 L318.0046 353.9795"/>
        <path d="M318.0046 364.9795 L324.8796 348.4795 L318.0046 352.6045 L311.1296 348.4795 Z" stroke="none"/>
      </g>
      <g>
        <g stroke-linecap="butt" transform="matrix(1,0,0,1,8,52)" fill="white" text-rendering="geometricPrecision" shape-rendering="geometricPrecision" stroke="white" stroke-width="4" stroke-miterlimit="1.45">
          <rect x="17.0003" width="33.7773" height="18.1328" y="265.9219" stroke="none"/>
        </g>
        <g fill="silver" text-rendering="geometricPrecision" stroke-miterlimit="1.6" shape-rendering="geometricPrecision" transform="matrix(1,0,0,1,8,52)" stroke="silver">
          <rect fill="none" x="17.0003" width="33.7773" height="18.1328" y="265.9219"/>
        </g>
        <g text-rendering="geometricPrecision" stroke-miterlimit="1.45" shape-rendering="geometricPrecision" font-family="sans-serif" transform="matrix(1,0,0,1,8,52)" stroke-linecap="butt">
          <text x="19.0003" xml:space="preserve" y="279.5234" stroke="none">.next</text>
        </g>
      </g>
    </g>
    <g onmouseout="HideTooltip(evt)" id="y.edge.7" onmousemove="ShowTooltip(evt)">
      <g text-rendering="geometricPrecision" stroke-miterlimit="1.45" stroke-dasharray="6,2" shape-rendering="geometricPrecision" transform="matrix(1,0,0,1,8,52)" stroke-linecap="butt">
        <path fill="none" d="M348.5969 364.9955 L348.5969 250.4219 L291.1413 250.4219 L291.1413 171.4375 L403.9798 171.4375 L403.9798 163.9375"/>
        <path d="M403.9798 155.9375 L398.9798 167.9375 L403.9798 164.9375 L408.9798 167.9375 Z" stroke="none"/>
      </g>
      <g>
        <g stroke-linecap="butt" transform="matrix(1,0,0,1,8,52)" fill="white" text-rendering="geometricPrecision" shape-rendering="geometricPrecision" stroke-dasharray="6,2" stroke="white" stroke-miterlimit="1.45">
          <rect x="169.9352" width="242.4121" height="17.9688" y="216.9531" stroke="none"/>
        </g>
        <g fill="silver" text-rendering="geometricPrecision" stroke-miterlimit="1.6" shape-rendering="geometricPrecision" transform="matrix(1,0,0,1,8,52)" stroke="silver">
          <rect fill="none" x="169.9352" width="242.4121" height="17.9688" y="216.9531"/>
        </g>
        <g text-rendering="geometricPrecision" stroke-miterlimit="1.45" shape-rendering="geometricPrecision" font-family="monospace" transform="matrix(1,0,0,1,8,52)" stroke-linecap="butt">
          <text x="171.9352" xml:space="preserve" y="230.0918" stroke="none">.yield if waitingQueue.length = 0</text>
        </g>
      </g>
    </g>
    <g onmouseout="HideTooltip(evt)" id="y.edge.2" onmousemove="ShowTooltip(evt)">
      <g text-rendering="geometricPrecision" stroke-miterlimit="1.45" stroke-width="4" shape-rendering="geometricPrecision" transform="matrix(1,0,0,1,8,52)" stroke-linecap="butt">
        <path fill="none" d="M304.2085 395.0234 L304.2085 412.0234 L283.6623 412.0234 L283.6622 460.9629"/>
        <path d="M283.6621 471.9629 L290.5372 455.463 L283.6622 459.5879 L276.7872 455.4629 Z" stroke="none"/>
      </g>
      <g>
        <g stroke-linecap="butt" transform="matrix(1,0,0,1,8,52)" fill="white" text-rendering="geometricPrecision" shape-rendering="geometricPrecision" stroke="white" stroke-width="4" stroke-miterlimit="1.45">
          <rect x="256.3762" width="54.5723" height="17.9688" y="439.0234" stroke="none"/>
        </g>
        <g fill="silver" text-rendering="geometricPrecision" stroke-miterlimit="1.6" shape-rendering="geometricPrecision" transform="matrix(1,0,0,1,8,52)" stroke="silver">
          <rect fill="none" x="256.3762" width="54.5723" height="17.9688" y="439.0234"/>
        </g>
        <g text-rendering="geometricPrecision" stroke-miterlimit="1.45" shape-rendering="geometricPrecision" font-family="monospace" transform="matrix(1,0,0,1,8,52)" stroke-linecap="butt">
          <text x="258.3762" xml:space="preserve" y="452.1621" stroke="none">.return</text>
        </g>
      </g>
    </g>
    <g onmouseout="HideTooltip(evt)" id="y.edge.3" onmousemove="ShowTooltip(evt)">
      <g text-rendering="geometricPrecision" stroke-miterlimit="1.45" stroke-width="4" shape-rendering="geometricPrecision" transform="matrix(1,0,0,1,8,52)" stroke-linecap="butt">
        <path fill="none" d="M202.696 486.9922 L95.333 486.9922 L95.333 436.0078 L229.7022 436.0078 L229.7022 460.9571"/>
        <path d="M229.7022 471.9571 L236.5772 455.4571 L229.7022 459.5821 L222.8272 455.4571 Z" stroke="none"/>
      </g>
      <g>
        <g stroke-linecap="butt" transform="matrix(1,0,0,1,8,52)" fill="white" text-rendering="geometricPrecision" shape-rendering="geometricPrecision" stroke="white" stroke-width="4" stroke-miterlimit="1.45">
          <rect x="105.333" width="112.3691" height="17.9688" y="427.0234" stroke="none"/>
        </g>
        <g fill="silver" text-rendering="geometricPrecision" stroke-miterlimit="1.6" shape-rendering="geometricPrecision" transform="matrix(1,0,0,1,8,52)" stroke="silver">
          <rect fill="none" x="105.333" width="112.3691" height="17.9688" y="427.0234"/>
        </g>
        <g text-rendering="geometricPrecision" stroke-miterlimit="1.45" shape-rendering="geometricPrecision" font-family="monospace" transform="matrix(1,0,0,1,8,52)" stroke-linecap="butt">
          <text x="107.333" xml:space="preserve" y="440.1621" stroke="none">.next | .return</text>
        </g>
      </g>
    </g>
    <g onmouseout="HideTooltip(evt)" id="y.edge.4" onmousemove="ShowTooltip(evt)">
      <g text-rendering="geometricPrecision" stroke-miterlimit="1.45" stroke-dasharray="6,2" shape-rendering="geometricPrecision" transform="matrix(1,0,0,1,8,52)" stroke-linecap="butt">
        <path fill="none" d="M256.6821 501.9922 L256.6821 562.4766 L371.588 562.4766 L371.588 613.4165"/>
        <path d="M371.588 621.4165 L376.588 609.4165 L371.588 612.4165 L366.588 609.4165 Z" stroke="none"/>
      </g>
      <g>
        <g stroke-linecap="butt" transform="matrix(1,0,0,1,8,52)" fill="white" text-rendering="geometricPrecision" shape-rendering="geometricPrecision" stroke-dasharray="6,2" stroke="white" stroke-miterlimit="1.45">
          <rect x="196.8853" width="119.5938" height="17.9688" y="526.9922" stroke="none"/>
        </g>
        <g fill="silver" text-rendering="geometricPrecision" stroke-miterlimit="1.6" shape-rendering="geometricPrecision" transform="matrix(1,0,0,1,8,52)" stroke="silver">
          <rect fill="none" x="196.8853" width="119.5938" height="17.9688" y="526.9922"/>
        </g>
        <g text-rendering="geometricPrecision" stroke-miterlimit="1.45" shape-rendering="geometricPrecision" font-family="monospace" transform="matrix(1,0,0,1,8,52)" stroke-linecap="butt">
          <text x="198.8853" xml:space="preserve" y="540.1309" stroke="none">.return | .throw</text>
        </g>
      </g>
    </g>
    <g onmouseout="HideTooltip(evt)" id="y.edge.6" onmousemove="ShowTooltip(evt)">
      <g text-rendering="geometricPrecision" stroke-miterlimit="1.45" stroke-dasharray="6,2" shape-rendering="geometricPrecision" transform="matrix(1,0,0,1,8,52)" stroke-linecap="butt">
        <path fill="none" d="M365.3931 395.0234 L365.3931 410.5234 L385.9393 410.5234 L385.9393 546.4766 L406.4212 546.4766 L406.4212 613.4087"/>
        <path d="M406.4212 621.4087 L411.4212 609.4087 L406.4212 612.4087 L401.4212 609.4087 Z" stroke="none"/>
      </g>
      <g>
        <g stroke-linecap="butt" transform="matrix(1,0,0,1,8,52)" fill="white" text-rendering="geometricPrecision" shape-rendering="geometricPrecision" stroke-dasharray="6,2" stroke="white" stroke-miterlimit="1.45">
          <rect x="326.1424" width="119.5938" height="17.9688" y="483.0078" stroke="none"/>
        </g>
        <g fill="silver" text-rendering="geometricPrecision" stroke-miterlimit="1.6" shape-rendering="geometricPrecision" transform="matrix(1,0,0,1,8,52)" stroke="silver">
          <rect fill="none" x="326.1424" width="119.5938" height="17.9688" y="483.0078"/>
        </g>
        <g text-rendering="geometricPrecision" stroke-miterlimit="1.45" shape-rendering="geometricPrecision" font-family="monospace" transform="matrix(1,0,0,1,8,52)" stroke-linecap="butt">
          <text x="328.1424" xml:space="preserve" y="496.1465" stroke="none">.return | .throw</text>
        </g>
      </g>
    </g>
    <g onmouseout="HideTooltip(evt)" id="y.edge.10" onmousemove="ShowTooltip(evt)">
      <g text-rendering="geometricPrecision" stroke-miterlimit="1.45" stroke-width="4" shape-rendering="geometricPrecision" transform="matrix(1,0,0,1,8,52)" stroke-linecap="butt">
        <path fill="none" d="M452.2152 155.9375 L452.2152 203.9375 L463.2365 203.9375 L463.2365 547.9766 L442.7544 547.9766 L442.7544 610.4094"/>
        <path d="M442.7544 621.4094 L449.6294 604.9094 L442.7544 609.0344 L435.8794 604.9094 Z" stroke="none"/>
      </g>
      <g>
        <g stroke-linecap="butt" transform="matrix(1,0,0,1,8,52)" fill="white" text-rendering="geometricPrecision" shape-rendering="geometricPrecision" stroke="white" stroke-width="4" stroke-miterlimit="1.45">
          <rect x="441.3937" width="43.6855" height="18.1328" y="438.9414" stroke="none"/>
        </g>
        <g fill="silver" text-rendering="geometricPrecision" stroke-miterlimit="1.6" shape-rendering="geometricPrecision" transform="matrix(1,0,0,1,8,52)" stroke="silver">
          <rect fill="none" x="441.3937" width="43.6855" height="18.1328" y="438.9414"/>
        </g>
        <g text-rendering="geometricPrecision" stroke-miterlimit="1.45" shape-rendering="geometricPrecision" font-family="sans-serif" transform="matrix(1,0,0,1,8,52)" stroke-linecap="butt">
          <text x="443.3937" xml:space="preserve" y="452.543" stroke="none">.return</text>
        </g>
      </g>
    </g>
    <g id="y.edge.12">
      <g text-rendering="geometricPrecision" stroke-miterlimit="1.45" shape-rendering="geometricPrecision" transform="matrix(1,0,0,1,8,52)" stroke-linecap="butt">
        <path fill="none" d="M319.2995 636.4453 L240.0087 636.4453 L240.0087 586.9609 L336.7548 586.9609 L336.7548 613.4116"/>
        <path d="M336.7548 621.4116 L341.7548 609.4116 L336.7548 612.4116 L331.7548 609.4116 Z" stroke="none"/>
      </g>
      <g>
        <g stroke-linecap="butt" transform="matrix(1,0,0,1,8,52)" fill="white" text-rendering="geometricPrecision" shape-rendering="geometricPrecision" stroke="white" stroke-miterlimit="1.45">
          <rect x="250.0087" width="76.2461" height="17.9688" y="577.9766" stroke="none"/>
        </g>
        <g fill="silver" text-rendering="geometricPrecision" stroke-miterlimit="1.6" shape-rendering="geometricPrecision" transform="matrix(1,0,0,1,8,52)" stroke="silver">
          <rect fill="none" x="250.0087" width="76.2461" height="17.9688" y="577.9766"/>
        </g>
        <g text-rendering="geometricPrecision" stroke-miterlimit="1.45" shape-rendering="geometricPrecision" font-family="monospace" transform="matrix(1,0,0,1,8,52)" stroke-linecap="butt">
          <text x="252.0087" xml:space="preserve" y="591.1152" stroke="none">any action</text>
        </g>
      </g>
    </g>
    <g id="y.node.0">
      <g fill="rgb(245,245,245)" text-rendering="geometricPrecision" shape-rendering="geometricPrecision" transform="matrix(1,0,0,1,8,52)" stroke="rgb(245,245,245)">
        <rect x="536.2726" y="-36.4609" width="333.6996" rx="4" ry="4" height="207.3984" stroke="none"/>
      </g>
      <g>
        <g fill="rgb(235,235,235)" text-rendering="geometricPrecision" shape-rendering="geometricPrecision" transform="matrix(1,0,0,1,8,52)" stroke="rgb(235,235,235)">
          <rect x="536.2726" width="333.6996" height="21.4609" y="-36.4609" stroke="none"/>
        </g>
        <g font-size="15px" stroke-linecap="butt" transform="matrix(1,0,0,1,8,52)" text-rendering="geometricPrecision" font-family="monospace" shape-rendering="geometricPrecision" stroke-miterlimit="1.45">
          <text x="813.7877" xml:space="preserve" y="-20.5376" stroke="none">Legend</text>
        </g>
      </g>
      <g text-rendering="geometricPrecision" stroke-miterlimit="1.45" stroke-dasharray="6,2" shape-rendering="geometricPrecision" transform="matrix(1,0,0,1,8,52)" stroke-linecap="butt">
        <rect x="536.2726" y="-36.4609" fill="none" width="333.6996" rx="4" ry="4" height="207.3984"/>
      </g>
    </g>
    <g id="y.node.7">
      <g fill="white" text-rendering="geometricPrecision" shape-rendering="geometricPrecision" transform="matrix(1,0,0,1,8,52)" stroke="white">
        <rect x="633.9683" width="14" height="30" y="0" stroke="none"/>
      </g>
      <g text-rendering="geometricPrecision" stroke-miterlimit="1.45" shape-rendering="geometricPrecision" transform="matrix(1,0,0,1,8,52)" stroke-linecap="butt">
        <rect fill="none" x="633.9683" width="14" height="30" y="0"/>
      </g>
      <g/>
    </g>
    <g id="y.node.8">
      <g fill="white" text-rendering="geometricPrecision" shape-rendering="geometricPrecision" transform="matrix(1,0,0,1,8,52)" stroke="white">
        <rect x="633.9683" width="14" height="30" y="125.9375" stroke="none"/>
      </g>
      <g text-rendering="geometricPrecision" stroke-miterlimit="1.45" shape-rendering="geometricPrecision" transform="matrix(1,0,0,1,8,52)" stroke-linecap="butt">
        <rect fill="none" x="633.9683" width="14" height="30" y="125.9375"/>
      </g>
      <g/>
    </g>
    <g id="y.node.9">
      <g fill="white" text-rendering="geometricPrecision" shape-rendering="geometricPrecision" transform="matrix(1,0,0,1,8,52)" stroke="white">
        <rect x="737.6639" width="14" height="30" y="0" stroke="none"/>
      </g>
      <g text-rendering="geometricPrecision" stroke-miterlimit="1.45" shape-rendering="geometricPrecision" transform="matrix(1,0,0,1,8,52)" stroke-linecap="butt">
        <rect fill="none" x="737.6639" width="14" height="30" y="0"/>
      </g>
      <g/>
    </g>
    <g id="y.node.10">
      <g fill="white" text-rendering="geometricPrecision" shape-rendering="geometricPrecision" transform="matrix(1,0,0,1,8,52)" stroke="white">
        <rect x="737.6639" width="14" height="30" y="125.9375" stroke="none"/>
      </g>
      <g text-rendering="geometricPrecision" stroke-miterlimit="1.45" shape-rendering="geometricPrecision" transform="matrix(1,0,0,1,8,52)" stroke-linecap="butt">
        <rect fill="none" x="737.6639" width="14" height="30" y="125.9375"/>
      </g>
      <g/>
    </g>
    <g id="y.node.11">
      <g fill="white" text-rendering="geometricPrecision" shape-rendering="geometricPrecision" transform="matrix(1,0,0,1,8,52)" stroke="white">
        <rect x="826.9103" width="14" height="30" y="0" stroke="none"/>
      </g>
      <g text-rendering="geometricPrecision" stroke-miterlimit="1.45" shape-rendering="geometricPrecision" transform="matrix(1,0,0,1,8,52)" stroke-linecap="butt">
        <rect fill="none" x="826.9103" width="14" height="30" y="0"/>
      </g>
      <g/>
    </g>
    <g id="y.node.12">
      <g fill="white" text-rendering="geometricPrecision" shape-rendering="geometricPrecision" transform="matrix(1,0,0,1,8,52)" stroke="white">
        <rect x="826.9103" width="14" height="30" y="125.9375" stroke="none"/>
      </g>
      <g text-rendering="geometricPrecision" stroke-miterlimit="1.45" shape-rendering="geometricPrecision" transform="matrix(1,0,0,1,8,52)" stroke-linecap="butt">
        <rect fill="none" x="826.9103" width="14" height="30" y="125.9375"/>
      </g>
      <g/>
    </g>
    <g id="y.node.6">
      <g fill="rgb(153,204,255)" text-rendering="geometricPrecision" shape-rendering="geometricPrecision" transform="matrix(1,0,0,1,8,52)" stroke="rgb(153,204,255)">
        <rect x="692.1817" width="79.0215" height="30" y="365.0234" stroke="none"/>
      </g>
      <g text-rendering="geometricPrecision" stroke-miterlimit="1.45" shape-rendering="geometricPrecision" transform="matrix(1,0,0,1,8,52)" stroke-linecap="butt">
        <rect fill="none" x="692.1817" width="79.0215" height="30" y="365.0234"/>
      </g>
      <g>
        <g text-rendering="geometricPrecision" stroke-miterlimit="1.45" shape-rendering="geometricPrecision" font-family="monospace" transform="matrix(1,0,0,1,8,52)" stroke-linecap="butt">
          <text x="699.1817" xml:space="preserve" y="384.1777" stroke="none">endQueued</text>
        </g>
      </g>
    </g>
    <g id="y.node.13">
      <g fill="rgb(153,204,255)" text-rendering="geometricPrecision" shape-rendering="geometricPrecision" transform="matrix(1,0,0,1,8,52)" stroke="rgb(153,204,255)">
        <rect x="355.5736" width="71.7969" height="30" y="753.0469" stroke="none"/>
      </g>
      <g text-rendering="geometricPrecision" stroke-miterlimit="1.45" shape-rendering="geometricPrecision" transform="matrix(1,0,0,1,8,52)" stroke-linecap="butt">
        <rect fill="none" x="355.5736" width="71.7969" height="30" y="753.0469"/>
      </g>
      <g>
        <g text-rendering="geometricPrecision" stroke-miterlimit="1.45" shape-rendering="geometricPrecision" font-family="monospace" transform="matrix(1,0,0,1,8,52)" stroke-linecap="butt">
          <text x="362.5736" xml:space="preserve" y="772.2012" stroke="none">complete</text>
        </g>
      </g>
    </g>
    <g onmouseout="HideTooltip(evt)" id="y.edge.13" onmousemove="ShowTooltip(evt)">
      <g text-rendering="geometricPrecision" stroke-miterlimit="1.45" stroke-dasharray="6,2" shape-rendering="geometricPrecision" transform="matrix(1,0,0,1,8,52)" stroke-linecap="butt">
        <path fill="none" d="M640.9683 30 L640.9683 117.8907"/>
        <path d="M640.9683 125.8907 L645.9683 113.8907 L640.9683 116.8907 L635.9683 113.8907 Z" stroke="none"/>
      </g>
      <g>
        <g stroke-linecap="butt" transform="matrix(1,0,0,1,8,52)" fill="white" text-rendering="geometricPrecision" shape-rendering="geometricPrecision" stroke-dasharray="6,2" stroke="white" stroke-miterlimit="1.45">
          <rect x="552.2729" width="177.3906" height="17.9688" y="55" stroke="none"/>
        </g>
        <g fill="silver" text-rendering="geometricPrecision" stroke-miterlimit="1.6" shape-rendering="geometricPrecision" transform="matrix(1,0,0,1,8,52)" stroke="silver">
          <rect fill="none" x="552.2729" width="177.3906" height="17.9688" y="55"/>
        </g>
        <g text-rendering="geometricPrecision" stroke-miterlimit="1.45" shape-rendering="geometricPrecision" font-family="monospace" transform="matrix(1,0,0,1,8,52)" stroke-linecap="butt">
          <text x="554.2729" xml:space="preserve" y="68.1387" stroke="none">stream controller method</text>
        </g>
      </g>
    </g>
    <g onmouseout="HideTooltip(evt)" id="y.edge.14" onmousemove="ShowTooltip(evt)">
      <g text-rendering="geometricPrecision" stroke-miterlimit="1.45" stroke-width="4" shape-rendering="geometricPrecision" transform="matrix(1,0,0,1,8,52)" stroke-linecap="butt">
        <path fill="none" d="M744.6639 30 L744.6639 114.8907"/>
        <path d="M744.6639 125.8907 L751.5389 109.3907 L744.6639 113.5157 L737.7889 109.3907 Z" stroke="none"/>
      </g>
      <g>
        <g stroke-linecap="butt" transform="matrix(1,0,0,1,8,52)" fill="white" text-rendering="geometricPrecision" shape-rendering="geometricPrecision" stroke="white" stroke-width="4" stroke-miterlimit="1.45">
          <rect x="670.4178" width="148.4922" height="17.9688" y="92.9688" stroke="none"/>
        </g>
        <g fill="silver" text-rendering="geometricPrecision" stroke-miterlimit="1.6" shape-rendering="geometricPrecision" transform="matrix(1,0,0,1,8,52)" stroke="silver">
          <rect fill="none" x="670.4178" width="148.4922" height="17.9688" y="92.9688"/>
        </g>
        <g text-rendering="geometricPrecision" stroke-miterlimit="1.45" shape-rendering="geometricPrecision" font-family="monospace" transform="matrix(1,0,0,1,8,52)" stroke-linecap="butt">
          <text x="672.4178" xml:space="preserve" y="106.1074" stroke="none">stream object method</text>
        </g>
      </g>
    </g>
    <g id="y.edge.15">
      <g text-rendering="geometricPrecision" stroke-miterlimit="1.45" shape-rendering="geometricPrecision" transform="matrix(1,0,0,1,8,52)" stroke-linecap="butt">
        <path fill="none" d="M833.9103 30 L833.9103 117.8907"/>
        <path d="M833.9103 125.8907 L838.9103 113.8907 L833.9103 116.8907 L828.9103 113.8907 Z" stroke="none"/>
      </g>
      <g>
        <g stroke-linecap="butt" transform="matrix(1,0,0,1,8,52)" fill="white" text-rendering="geometricPrecision" shape-rendering="geometricPrecision" stroke="white" stroke-miterlimit="1.45">
          <rect x="813.8488" width="40.123" height="17.9688" y="55" stroke="none"/>
        </g>
        <g fill="silver" text-rendering="geometricPrecision" stroke-miterlimit="1.6" shape-rendering="geometricPrecision" transform="matrix(1,0,0,1,8,52)" stroke="silver">
          <rect fill="none" x="813.8488" width="40.123" height="17.9688" y="55"/>
        </g>
        <g text-rendering="geometricPrecision" stroke-miterlimit="1.45" shape-rendering="geometricPrecision" font-family="monospace" transform="matrix(1,0,0,1,8,52)" stroke-linecap="butt">
          <text x="815.8488" xml:space="preserve" y="68.1387" stroke="none">other</text>
        </g>
      </g>
    </g>
    <g onmouseout="HideTooltip(evt)" id="y.edge.9" onmousemove="ShowTooltip(evt)">
      <g text-rendering="geometricPrecision" stroke-miterlimit="1.45" stroke-dasharray="6,2" shape-rendering="geometricPrecision" transform="matrix(1,0,0,1,8,52)" stroke-linecap="butt">
        <path fill="none" d="M475.5829 155.9375 L475.5829 186.4375 L758.533 186.4375 L758.533 356.9798"/>
        <path d="M758.533 364.9798 L763.533 352.9798 L758.533 355.9798 L753.533 352.9798 Z" stroke="none"/>
      </g>
      <g>
        <g stroke-linecap="butt" transform="matrix(1,0,0,1,8,52)" fill="white" text-rendering="geometricPrecision" shape-rendering="geometricPrecision" stroke-dasharray="6,2" stroke="white" stroke-miterlimit="1.45">
          <rect x="698.7361" width="119.5938" height="17.9688" y="216.9531" stroke="none"/>
        </g>
        <g fill="silver" text-rendering="geometricPrecision" stroke-miterlimit="1.6" shape-rendering="geometricPrecision" transform="matrix(1,0,0,1,8,52)" stroke="silver">
          <rect fill="none" x="698.7361" width="119.5938" height="17.9688" y="216.9531"/>
        </g>
        <g text-rendering="geometricPrecision" stroke-miterlimit="1.45" shape-rendering="geometricPrecision" font-family="monospace" transform="matrix(1,0,0,1,8,52)" stroke-linecap="butt">
          <text x="700.7361" xml:space="preserve" y="230.0918" stroke="none">.return | .throw</text>
        </g>
      </g>
    </g>
    <g onmouseout="HideTooltip(evt)" id="y.edge.11" onmousemove="ShowTooltip(evt)">
      <g text-rendering="geometricPrecision" stroke-miterlimit="1.45" stroke-dasharray="6,2" shape-rendering="geometricPrecision" transform="matrix(1,0,0,1,8,52)" stroke-linecap="butt">
        <path fill="none" d="M692.1347 371.7734 L499.7367 371.7734 L499.7367 330.5391 L704.852 330.5391 L704.852 356.9898"/>
        <path d="M704.852 364.9898 L709.852 352.9898 L704.852 355.9898 L699.852 352.9898 Z" stroke="none"/>
      </g>
      <g>
        <g stroke-linecap="butt" transform="matrix(1,0,0,1,8,52)" fill="white" text-rendering="geometricPrecision" shape-rendering="geometricPrecision" stroke-dasharray="6,2" stroke="white" stroke-miterlimit="1.45">
          <rect x="509.7367" width="184.6152" height="17.9688" y="321.5547" stroke="none"/>
        </g>
        <g fill="silver" text-rendering="geometricPrecision" stroke-miterlimit="1.6" shape-rendering="geometricPrecision" transform="matrix(1,0,0,1,8,52)" stroke="silver">
          <rect fill="none" x="509.7367" width="184.6152" height="17.9688" y="321.5547"/>
        </g>
        <g text-rendering="geometricPrecision" stroke-miterlimit="1.45" shape-rendering="geometricPrecision" font-family="monospace" transform="matrix(1,0,0,1,8,52)" stroke-linecap="butt">
          <text x="511.7367" xml:space="preserve" y="334.6934" stroke="none">.yield | .return | .throw</text>
        </g>
      </g>
    </g>
    <g onmouseout="HideTooltip(evt)" id="y.edge.16" onmousemove="ShowTooltip(evt)">
      <g text-rendering="geometricPrecision" stroke-miterlimit="1.45" stroke-width="4" shape-rendering="geometricPrecision" transform="matrix(1,0,0,1,8,52)" stroke-linecap="butt">
        <path fill="none" d="M692.1561 386.7734 L482.2367 386.7734 L482.2367 274.9883 L731.6924 274.9883 L731.6924 353.9795"/>
        <path d="M731.6924 364.9795 L738.5674 348.4795 L731.6924 352.6045 L724.8174 348.4795 Z" stroke="none"/>
      </g>
      <g>
        <g stroke-linecap="butt" transform="matrix(1,0,0,1,8,52)" fill="white" text-rendering="geometricPrecision" shape-rendering="geometricPrecision" stroke="white" stroke-width="4" stroke-miterlimit="1.45">
          <rect x="492.2367" width="150.6074" height="18.1328" y="265.9219" stroke="none"/>
        </g>
        <g fill="silver" text-rendering="geometricPrecision" stroke-miterlimit="1.6" shape-rendering="geometricPrecision" transform="matrix(1,0,0,1,8,52)" stroke="silver">
          <rect fill="none" x="492.2367" width="150.6074" height="18.1328" y="265.9219"/>
        </g>
        <g text-rendering="geometricPrecision" stroke-miterlimit="1.45" shape-rendering="geometricPrecision" font-family="sans-serif" transform="matrix(1,0,0,1,8,52)" stroke-linecap="butt">
          <text x="494.2367" xml:space="preserve" y="279.5234" stroke="none">.next if queue.length &gt; 0</text>
        </g>
      </g>
    </g>
    <g onmouseout="HideTooltip(evt)" id="y.edge.19" onmousemove="ShowTooltip(evt)">
      <g text-rendering="geometricPrecision" stroke-miterlimit="1.45" stroke-width="4" shape-rendering="geometricPrecision" transform="matrix(1,0,0,1,8,52)" stroke-linecap="butt">
        <path fill="none" d="M731.6924 395.0234 L731.6924 547.9766 L480.5876 547.9766 L480.5876 610.4094"/>
        <path d="M480.5876 621.4094 L487.4626 604.9094 L480.5876 609.0344 L473.7126 604.9094 Z" stroke="none"/>
      </g>
      <g>
        <g stroke-linecap="butt" transform="matrix(1,0,0,1,8,52)" fill="white" text-rendering="geometricPrecision" shape-rendering="geometricPrecision" stroke="white" stroke-width="4" stroke-miterlimit="1.45">
          <rect x="630.5079" width="202.3691" height="18.1328" y="482.9258" stroke="none"/>
        </g>
        <g fill="silver" text-rendering="geometricPrecision" stroke-miterlimit="1.6" shape-rendering="geometricPrecision" transform="matrix(1,0,0,1,8,52)" stroke="silver">
          <rect fill="none" x="630.5079" width="202.3691" height="18.1328" y="482.9258"/>
        </g>
        <g text-rendering="geometricPrecision" stroke-miterlimit="1.45" shape-rendering="geometricPrecision" font-family="sans-serif" transform="matrix(1,0,0,1,8,52)" stroke-linecap="butt">
          <text x="632.5079" xml:space="preserve" y="496.5273" stroke="none">.return | .next if queue.length = 0</text>
        </g>
      </g>
    </g>
    <g id="y.edge.17">
      <g text-rendering="geometricPrecision" stroke-miterlimit="1.45" shape-rendering="geometricPrecision" transform="matrix(1,0,0,1,8,52)" stroke-linecap="butt">
        <path fill="none" d="M355.5351 768.0469 L276.7767 768.0469 L276.7767 718.5625 L373.5228 718.5625 L373.5228 745.0132"/>
        <path d="M373.5228 753.0132 L378.5228 741.0132 L373.5228 744.0132 L368.5228 741.0132 Z" stroke="none"/>
      </g>
      <g>
        <g stroke-linecap="butt" transform="matrix(1,0,0,1,8,52)" fill="white" text-rendering="geometricPrecision" shape-rendering="geometricPrecision" stroke="white" stroke-miterlimit="1.45">
          <rect x="286.7767" width="76.2461" height="17.9688" y="709.5781" stroke="none"/>
        </g>
        <g fill="silver" text-rendering="geometricPrecision" stroke-miterlimit="1.6" shape-rendering="geometricPrecision" transform="matrix(1,0,0,1,8,52)" stroke="silver">
          <rect fill="none" x="286.7767" width="76.2461" height="17.9688" y="709.5781"/>
        </g>
        <g text-rendering="geometricPrecision" stroke-miterlimit="1.45" shape-rendering="geometricPrecision" font-family="monospace" transform="matrix(1,0,0,1,8,52)" stroke-linecap="butt">
          <text x="288.7767" xml:space="preserve" y="722.7168" stroke="none">any action</text>
        </g>
      </g>
    </g>
    <g id="y.edge.18">
      <g text-rendering="geometricPrecision" stroke-miterlimit="1.45" shape-rendering="geometricPrecision" transform="matrix(1,0,0,1,8,52)" stroke-linecap="butt">
        <path fill="none" d="M409.4212 651.4453 L409.4212 744.9973"/>
        <path d="M409.4212 752.9973 L414.4212 740.9973 L409.4212 743.9973 L404.4212 740.9973 Z" stroke="none"/>
      </g>
      <g>
        <g stroke-linecap="butt" transform="matrix(1,0,0,1,8,52)" fill="white" text-rendering="geometricPrecision" shape-rendering="geometricPrecision" stroke="white" stroke-miterlimit="1.45">
          <rect x="359.5355" width="99.7715" height="18.1328" y="676.4453" stroke="none"/>
        </g>
        <g fill="silver" text-rendering="geometricPrecision" stroke-miterlimit="1.6" shape-rendering="geometricPrecision" transform="matrix(1,0,0,1,8,52)" stroke="silver">
          <rect fill="none" x="359.5355" width="99.7715" height="18.1328" y="676.4453"/>
        </g>
        <g text-rendering="geometricPrecision" stroke-miterlimit="1.45" shape-rendering="geometricPrecision" font-family="sans-serif" transform="matrix(1,0,0,1,8,52)" stroke-linecap="butt">
          <text x="361.5355" xml:space="preserve" y="690.0469" stroke="none">cleanup finished</text>
        </g>
      </g>
    </g>
    <g visibility="hidden" id="tooltip.y.edge.1" pointer-events="none">
      <g fill="rgb(255,255,204)" text-rendering="geometricPrecision" font-size="11px" shape-rendering="geometricPrecision" font-family="'Lucida Grande'" stroke="rgb(255,255,204)">
        <rect x="0" width="90" height="18" y="0" clip-path="url(#clipPath3)" stroke="none"/>
        <text fill="black" x="3" xml:space="preserve" y="13" clip-path="url(#clipPath3)" stroke="none">stream-method</text>
      </g>
    </g>
    <g visibility="hidden" id="tooltip.y.edge.2" pointer-events="none">
      <g fill="rgb(255,255,204)" text-rendering="geometricPrecision" font-size="11px" shape-rendering="geometricPrecision" font-family="'Lucida Grande'" stroke="rgb(255,255,204)">
        <rect x="0" width="90" height="18" y="0" clip-path="url(#clipPath3)" stroke="none"/>
        <text fill="black" x="3" xml:space="preserve" y="13" clip-path="url(#clipPath3)" stroke="none">stream-method</text>
      </g>
    </g>
    <g visibility="hidden" id="tooltip.y.edge.3" pointer-events="none">
      <g fill="rgb(255,255,204)" text-rendering="geometricPrecision" font-size="11px" shape-rendering="geometricPrecision" font-family="'Lucida Grande'" stroke="rgb(255,255,204)">
        <rect x="0" width="90" height="18" y="0" clip-path="url(#clipPath3)" stroke="none"/>
        <text fill="black" x="3" xml:space="preserve" y="13" clip-path="url(#clipPath3)" stroke="none">stream-method</text>
      </g>
    </g>
    <g visibility="hidden" id="tooltip.y.edge.4" pointer-events="none">
      <g fill="rgb(255,255,204)" text-rendering="geometricPrecision" font-size="11px" shape-rendering="geometricPrecision" font-family="'Lucida Grande'" stroke="rgb(255,255,204)">
        <rect x="0" width="106" height="18" y="0" clip-path="url(#clipPath4)" stroke="none"/>
        <text fill="black" x="3" xml:space="preserve" y="13" clip-path="url(#clipPath4)" stroke="none">controller-method</text>
      </g>
    </g>
    <g visibility="hidden" id="tooltip.y.edge.5" pointer-events="none">
      <g fill="rgb(255,255,204)" text-rendering="geometricPrecision" font-size="11px" shape-rendering="geometricPrecision" font-family="'Lucida Grande'" stroke="rgb(255,255,204)">
        <rect x="0" width="106" height="18" y="0" clip-path="url(#clipPath4)" stroke="none"/>
        <text fill="black" x="3" xml:space="preserve" y="13" clip-path="url(#clipPath4)" stroke="none">controller-method</text>
      </g>
    </g>
    <g visibility="hidden" id="tooltip.y.edge.6" pointer-events="none">
      <g fill="rgb(255,255,204)" text-rendering="geometricPrecision" font-size="11px" shape-rendering="geometricPrecision" font-family="'Lucida Grande'" stroke="rgb(255,255,204)">
        <rect x="0" width="106" height="18" y="0" clip-path="url(#clipPath4)" stroke="none"/>
        <text fill="black" x="3" xml:space="preserve" y="13" clip-path="url(#clipPath4)" stroke="none">controller-method</text>
      </g>
    </g>
    <g visibility="hidden" id="tooltip.y.edge.7" pointer-events="none">
      <g fill="rgb(255,255,204)" text-rendering="geometricPrecision" font-size="11px" shape-rendering="geometricPrecision" font-family="'Lucida Grande'" stroke="rgb(255,255,204)">
        <rect x="0" width="106" height="18" y="0" clip-path="url(#clipPath4)" stroke="none"/>
        <text fill="black" x="3" xml:space="preserve" y="13" clip-path="url(#clipPath4)" stroke="none">controller-method</text>
      </g>
    </g>
    <g visibility="hidden" id="tooltip.y.edge.8" pointer-events="none">
      <g fill="rgb(255,255,204)" text-rendering="geometricPrecision" font-size="11px" shape-rendering="geometricPrecision" font-family="'Lucida Grande'" stroke="rgb(255,255,204)">
        <rect x="0" width="106" height="18" y="0" clip-path="url(#clipPath4)" stroke="none"/>
        <text fill="black" x="3" xml:space="preserve" y="13" clip-path="url(#clipPath4)" stroke="none">controller-method</text>
      </g>
    </g>
    <g visibility="hidden" id="tooltip.y.edge.9" pointer-events="none">
      <g fill="rgb(255,255,204)" text-rendering="geometricPrecision" font-size="11px" shape-rendering="geometricPrecision" font-family="'Lucida Grande'" stroke="rgb(255,255,204)">
        <rect x="0" width="106" height="18" y="0" clip-path="url(#clipPath4)" stroke="none"/>
        <text fill="black" x="3" xml:space="preserve" y="13" clip-path="url(#clipPath4)" stroke="none">controller-method</text>
      </g>
    </g>
    <g visibility="hidden" id="tooltip.y.edge.10" pointer-events="none">
      <g fill="rgb(255,255,204)" text-rendering="geometricPrecision" font-size="11px" shape-rendering="geometricPrecision" font-family="'Lucida Grande'" stroke="rgb(255,255,204)">
        <rect x="0" width="90" height="18" y="0" clip-path="url(#clipPath3)" stroke="none"/>
        <text fill="black" x="3" xml:space="preserve" y="13" clip-path="url(#clipPath3)" stroke="none">stream-method</text>
      </g>
    </g>
    <g visibility="hidden" id="tooltip.y.edge.11" pointer-events="none">
      <g fill="rgb(255,255,204)" text-rendering="geometricPrecision" font-size="11px" shape-rendering="geometricPrecision" font-family="'Lucida Grande'" stroke="rgb(255,255,204)">
        <rect x="0" width="106" height="18" y="0" clip-path="url(#clipPath4)" stroke="none"/>
        <text fill="black" x="3" xml:space="preserve" y="13" clip-path="url(#clipPath4)" stroke="none">controller-method</text>
      </g>
    </g>
    <g visibility="hidden" id="tooltip.y.edge.13" pointer-events="none">
      <g fill="rgb(255,255,204)" text-rendering="geometricPrecision" font-size="11px" shape-rendering="geometricPrecision" font-family="'Lucida Grande'" stroke="rgb(255,255,204)">
        <rect x="0" width="106" height="18" y="0" clip-path="url(#clipPath4)" stroke="none"/>
        <text fill="black" x="3" xml:space="preserve" y="13" clip-path="url(#clipPath4)" stroke="none">controller-method</text>
      </g>
    </g>
    <g visibility="hidden" id="tooltip.y.edge.14" pointer-events="none">
      <g fill="rgb(255,255,204)" text-rendering="geometricPrecision" font-size="11px" shape-rendering="geometricPrecision" font-family="'Lucida Grande'" stroke="rgb(255,255,204)">
        <rect x="0" width="90" height="18" y="0" clip-path="url(#clipPath3)" stroke="none"/>
        <text fill="black" x="3" xml:space="preserve" y="13" clip-path="url(#clipPath3)" stroke="none">stream-method</text>
      </g>
    </g>
    <g visibility="hidden" id="tooltip.y.edge.16" pointer-events="none">
      <g fill="rgb(255,255,204)" text-rendering="geometricPrecision" font-size="11px" shape-rendering="geometricPrecision" font-family="'Lucida Grande'" stroke="rgb(255,255,204)">
        <rect x="0" width="90" height="18" y="0" clip-path="url(#clipPath3)" stroke="none"/>
        <text fill="black" x="3" xml:space="preserve" y="13" clip-path="url(#clipPath3)" stroke="none">stream-method</text>
      </g>
    </g>
    <g visibility="hidden" id="tooltip.y.edge.19" pointer-events="none">
      <g fill="rgb(255,255,204)" text-rendering="geometricPrecision" font-size="11px" shape-rendering="geometricPrecision" font-family="'Lucida Grande'" stroke="rgb(255,255,204)">
        <rect x="0" width="90" height="18" y="0" clip-path="url(#clipPath3)" stroke="none"/>
        <text fill="black" x="3" xml:space="preserve" y="13" clip-path="url(#clipPath3)" stroke="none">stream-method</text>
      </g>
    </g>
    <g visibility="hidden" id="tooltip.y.edge.20" pointer-events="none">
      <g fill="rgb(255,255,204)" text-rendering="geometricPrecision" font-size="11px" shape-rendering="geometricPrecision" font-family="'Lucida Grande'" stroke="rgb(255,255,204)">
        <rect x="0" width="90" height="18" y="0" clip-path="url(#clipPath3)" stroke="none"/>
        <text fill="black" x="3" xml:space="preserve" y="13" clip-path="url(#clipPath3)" stroke="none">stream-method</text>
      </g>
    </g>
  </g>
</svg>
